<svg width="677" height="540" viewBox="0 0 677 540" fill="none" xmlns="http://www.w3.org/2000/svg">
<path fill-rule="evenodd" clip-rule="evenodd" d="M429.122 62.6022C423.554 66.2314 413.29 69.5449 408.796 72.4746C406.149 74.2 402.518 77.3162 404.742 80.7624C407.145 84.4849 419.753 83.05 421.984 86.507C423.016 88.1033 421.932 89.9228 420.617 90.7801C413.469 95.4396 392.775 91.2096 383.781 97.0726C382.198 98.1039 378.752 101.478 380.3 103.875C382.522 107.319 395.442 107.567 398.703 112.618C399.562 113.95 399.79 116.064 398.208 117.096C393.471 120.184 379.066 111.84 370.062 117.71C366.618 119.954 362.446 124.561 359.799 126.286C357.685 127.665 356.029 126.852 355.515 126.056C351.916 120.481 365.609 110.805 356.803 94.2694C355.531 91.701 353.579 86.9491 356.501 85.0444C361.259 81.9426 366.988 98.9612 372.278 95.5132C384.43 87.5921 372.959 61.093 377.453 58.1642C378.517 57.4701 380.297 57.4378 382.358 60.633C384.245 63.5546 384.912 65.766 387.134 69.2095C389.368 72.6692 391.711 74.5389 394.883 72.471C402.03 67.8115 397.572 46.9359 403.663 42.9669C404.988 42.1033 406.819 42.0459 407.677 43.3749C409.736 46.5655 408.212 55.847 410.103 58.7758C414.222 65.158 429.184 50.4898 432.616 55.8057C434.159 58.1956 432.301 60.5298 429.122 62.6022ZM309.898 149.297C309.725 149.945 308.795 150.851 307.088 150.387C304.952 149.807 301.178 147.626 298.398 146.871C291.128 144.898 283.312 153.645 279.487 152.607C278.21 152.26 277.907 150.79 278.194 149.708C279.284 145.605 287.85 142.617 288.593 139.819C289.11 137.872 286.086 136.359 284.808 136.013C277.548 134.042 264.649 141.401 258.879 139.833C257.817 139.546 256.703 138.561 257.048 137.264C257.794 134.455 266.514 132.665 267.317 129.641C268.061 126.842 264.968 125.542 262.831 124.962C259.203 123.977 251.643 123.995 247.148 122.774C244.582 122.077 242.84 120.916 243.356 118.974C244.502 114.655 257.638 121.235 259.014 116.052C259.647 113.672 256.634 107.773 257.322 105.18C257.609 104.101 258.844 103.74 259.913 104.03C264.829 105.365 266.342 120.354 272.113 121.921C274.674 122.616 275.835 120.849 276.581 118.038C277.324 115.242 277.294 113.611 277.924 111.237C278.613 108.642 279.808 108.276 280.667 108.508C284.294 109.494 282.337 129.79 292.148 132.453C296.419 133.613 296.582 120.936 300.423 121.978C302.781 122.619 302.501 126.236 302.205 128.238C299.884 141.263 311.099 144.768 309.898 149.297ZM427.446 1.44186C426.765 0.386817 425.331 -0.953377 424.355 0.987411C423.588 2.51295 423.673 11.7883 405.802 23.4428C396.606 29.4389 386.663 32.5435 373.256 41.2868C341.797 61.8015 342.006 92.8113 340.595 133.464C340.49 136.469 336.862 141.211 335.705 144.045C334.118 147.934 332.331 152.795 331.138 157.875C331.003 158.451 330.877 159.03 330.758 159.611C330.051 158.705 329.356 157.854 328.703 157.077C327.304 155.416 323.822 153.01 323.097 151.003C313.297 123.844 306.691 102.845 280.969 95.9025C270.008 92.9432 262.613 93.0323 255.095 91.0024C240.484 87.0593 238.523 80.7727 237.673 79.911C236.591 78.8141 235.913 80.0349 235.683 80.8983C230.32 100.976 228.574 149.778 274.721 162.235C299.419 168.902 312.486 162.252 318.285 163.818C321.899 164.793 326.074 167.428 329.406 170.83C329.17 173.276 329.087 175.73 329.154 178.169C329.305 183.542 328.342 192.302 331.997 196.778C335.256 200.769 344.087 198.844 343.753 193.086C343.625 190.857 342.365 188.814 341.779 186.686C341.224 184.674 340.713 182.661 340.367 180.6C339.697 176.619 339.508 172.532 340.049 168.523C341.164 160.258 345.591 153.082 352.568 148.532C359.662 143.906 380.035 147.117 410.241 127.418C466.683 90.6103 443.291 26.0002 427.446 1.44186Z" fill="white"/>
<path d="M45.52 303.98V307.429C43.1113 307.429 40.9764 307.593 39.1152 307.922C37.3634 308.141 36.1591 308.907 35.5022 310.221C34.9548 311.535 35.1737 313.67 36.1591 316.626L51.7606 365.401L49.6256 367.7L68.8401 303.816L72.1247 305.294L46.998 389.214C45.2463 389.104 43.4945 389.05 41.7428 389.05C39.991 389.05 38.1845 389.104 36.3233 389.214L10.3755 316.626C8.84276 312.247 7.14576 309.619 5.28453 308.743C3.53278 307.867 2.05474 307.429 0.850416 307.429V303.98C4.35391 304.309 7.96689 304.583 11.6894 304.802C15.5213 304.911 19.6817 304.966 24.1706 304.966C27.5646 304.966 31.1228 304.856 34.8453 304.637C38.6772 304.418 42.2355 304.199 45.52 303.98ZM131.246 303.98V307.265C129.166 307.812 127.195 309.071 125.334 311.042C123.473 313.013 121.721 316.462 120.079 321.388L98.2366 389.214C96.4849 389.104 94.6784 389.05 92.8172 389.05C91.0654 389.05 89.3137 389.104 87.5619 389.214L64.406 325.987L68.8401 303.816C70.8108 303.926 72.7816 303.98 74.7523 303.98C76.8325 303.871 78.8579 303.816 80.8287 303.816L103.328 370.164L101.521 368.357L112.524 333.541C114.386 327.52 115.097 322.648 114.659 318.925C114.221 315.203 112.908 312.411 110.718 310.55C108.528 308.688 105.572 307.593 101.85 307.265V303.98C103.601 304.09 105.463 304.199 107.433 304.309C109.514 304.309 111.539 304.364 113.51 304.473C115.59 304.473 117.342 304.473 118.765 304.473C120.955 304.473 123.199 304.418 125.498 304.309C127.907 304.199 129.823 304.09 131.246 303.98ZM178.455 301.681C188.089 301.681 195.644 304.528 201.118 310.221C206.592 315.914 209.329 325.22 209.329 338.14H155.299L154.97 335.019H188.637C188.746 329.655 188.418 324.728 187.651 320.239C186.885 315.641 185.681 311.973 184.038 309.236C182.396 306.499 180.207 305.13 177.469 305.13C173.637 305.13 170.353 307.539 167.616 312.356C164.988 317.173 163.401 325.166 162.853 336.333L163.346 337.318C163.236 338.632 163.127 340.001 163.018 341.424C163.018 342.847 163.018 344.325 163.018 345.858C163.018 353.413 164.058 359.544 166.138 364.252C168.328 368.959 171.065 372.408 174.349 374.598C177.634 376.678 180.973 377.718 184.367 377.718C186.666 377.718 189.02 377.39 191.429 376.733C193.947 375.966 196.465 374.653 198.983 372.791C201.501 370.821 203.855 368.083 206.045 364.58L209.001 365.565C207.687 369.726 205.607 373.777 202.76 377.718C199.914 381.66 196.301 384.889 191.921 387.407C187.542 389.926 182.287 391.185 176.156 391.185C168.711 391.185 162.142 389.597 156.448 386.422C150.755 383.247 146.266 378.43 142.982 371.97C139.807 365.511 138.219 357.299 138.219 347.336C138.219 337.154 139.916 328.669 143.31 321.881C146.814 315.093 151.576 310.057 157.598 306.772C163.729 303.378 170.681 301.681 178.455 301.681ZM255.626 260.296V373.612C255.626 378.211 256.392 381.331 257.925 382.973C259.567 384.616 262.304 385.437 266.136 385.437V388.885C264.056 388.776 260.936 388.667 256.775 388.557C252.615 388.338 248.4 388.229 244.13 388.229C239.86 388.229 235.535 388.338 231.156 388.557C226.886 388.667 223.656 388.776 221.467 388.885V385.437C225.299 385.437 227.981 384.616 229.514 382.973C231.156 381.331 231.977 378.211 231.977 373.612V280.003C231.977 275.077 231.211 271.464 229.678 269.164C228.255 266.756 225.518 265.552 221.467 265.552V262.103C224.97 262.431 228.364 262.595 231.649 262.595C236.138 262.595 240.407 262.431 244.458 262.103C248.509 261.665 252.232 261.063 255.626 260.296ZM310.873 260.296V373.612C310.873 378.211 311.639 381.331 313.172 382.973C314.814 384.616 317.551 385.437 321.383 385.437V388.885C319.303 388.776 316.183 388.667 312.022 388.557C307.862 388.338 303.647 388.229 299.377 388.229C295.107 388.229 290.782 388.338 286.403 388.557C282.133 388.667 278.903 388.776 276.713 388.885V385.437C280.545 385.437 283.228 384.616 284.761 382.973C286.403 381.331 287.224 378.211 287.224 373.612V280.003C287.224 275.077 286.458 271.464 284.925 269.164C283.502 266.756 280.764 265.552 276.713 265.552V262.103C280.217 262.431 283.611 262.595 286.896 262.595C291.384 262.595 295.654 262.431 299.705 262.103C303.756 261.665 307.479 261.063 310.873 260.296ZM389.955 260.46C394.554 260.46 398.44 260.734 401.615 261.282C404.9 261.72 407.692 262.376 409.991 263.252C412.29 264.128 414.37 265.168 416.231 266.373C418.093 267.467 419.68 269 420.994 270.971C422.308 272.942 422.965 275.131 422.965 277.54C422.965 281.372 421.651 284.438 419.023 286.737C416.396 289.036 412.564 290.185 407.527 290.185C402.71 290.185 398.933 289.091 396.196 286.901C393.459 284.602 392.09 281.536 392.09 277.704C392.09 274.858 393.021 272.394 394.882 270.314C396.853 268.124 399.535 266.537 402.929 265.552C401.834 264.895 400.301 264.402 398.331 264.073C396.47 263.636 394.444 263.417 392.254 263.417C387.218 263.417 382.948 264.511 379.445 266.701C376.051 268.891 373.314 271.847 371.233 275.569C369.701 278.306 368.551 281.755 367.785 285.916C367.128 290.076 366.799 296.152 366.799 304.145H386.342C392.035 304.145 396.907 304.09 400.958 303.98C405.009 303.871 408.622 303.707 411.797 303.488C415.082 303.159 418.312 302.721 421.487 302.174V373.612C421.487 378.211 422.363 381.331 424.114 382.973C425.866 384.616 428.822 385.437 432.983 385.437V388.885C430.793 388.776 427.508 388.667 423.129 388.557C418.859 388.338 414.534 388.229 410.155 388.229C405.885 388.229 401.561 388.338 397.181 388.557C392.802 388.667 389.517 388.776 387.328 388.885V385.437C391.16 385.437 393.842 384.616 395.375 382.973C397.017 381.331 397.838 378.211 397.838 373.612V321.881C397.838 316.954 397.017 313.341 395.375 311.042C393.732 308.634 390.722 307.429 386.342 307.429H366.799V373.612C366.799 378.32 367.949 381.495 370.248 383.138C372.547 384.67 375.777 385.437 379.937 385.437V388.885C377.419 388.776 373.861 388.667 369.263 388.557C364.774 388.338 360.176 388.229 355.468 388.229C350.65 388.229 346.052 388.338 341.673 388.557C337.293 388.667 333.954 388.776 331.655 388.885V385.437C335.815 385.437 338.771 384.616 340.523 382.973C342.275 381.331 343.151 378.211 343.151 373.612V307.429H330.998V304.145H343.151C343.151 297.247 344.246 291.116 346.435 285.751C348.625 280.277 351.855 275.515 356.125 271.464C360.066 267.851 364.993 265.114 370.905 263.252C376.927 261.391 383.277 260.46 389.955 260.46ZM485.725 301.681C495.359 301.681 502.914 304.528 508.388 310.221C513.862 315.914 516.599 325.22 516.599 338.14H462.569L462.24 335.019H495.907C496.016 329.655 495.688 324.728 494.922 320.239C494.155 315.641 492.951 311.973 491.309 309.236C489.666 306.499 487.477 305.13 484.74 305.13C480.908 305.13 477.623 307.539 474.886 312.356C472.258 317.173 470.671 325.166 470.123 336.333L470.616 337.318C470.507 338.632 470.397 340.001 470.288 341.424C470.288 342.847 470.288 344.325 470.288 345.858C470.288 353.413 471.328 359.544 473.408 364.252C475.598 368.959 478.335 372.408 481.619 374.598C484.904 376.678 488.243 377.718 491.637 377.718C493.936 377.718 496.29 377.39 498.699 376.733C501.217 375.966 503.735 374.653 506.253 372.791C508.771 370.821 511.125 368.083 513.315 364.58L516.271 365.565C514.957 369.726 512.877 373.777 510.03 377.718C507.184 381.66 503.571 384.889 499.191 387.407C494.812 389.926 489.557 391.185 483.426 391.185C475.981 391.185 469.412 389.597 463.719 386.422C458.025 383.247 453.536 378.43 450.252 371.97C447.077 365.511 445.489 357.299 445.489 347.336C445.489 337.154 447.186 328.669 450.58 321.881C454.084 315.093 458.846 310.057 464.868 306.772C470.999 303.378 477.951 301.681 485.725 301.681ZM562.896 260.296V373.612C562.896 378.211 563.662 381.331 565.195 382.973C566.837 384.616 569.574 385.437 573.406 385.437V388.885C571.326 388.776 568.206 388.667 564.045 388.557C559.885 388.338 555.67 388.229 551.4 388.229C547.13 388.229 542.806 388.338 538.426 388.557C534.156 388.667 530.926 388.776 528.737 388.885V385.437C532.569 385.437 535.251 384.616 536.784 382.973C538.426 381.331 539.247 378.211 539.247 373.612V280.003C539.247 275.077 538.481 271.464 536.948 269.164C535.525 266.756 532.788 265.552 528.737 265.552V262.103C532.24 262.431 535.634 262.595 538.919 262.595C543.408 262.595 547.678 262.431 551.728 262.103C555.779 261.665 559.502 261.063 562.896 260.296ZM662.874 260.296V370.821C662.874 375.747 663.64 379.415 665.173 381.824C666.706 384.123 669.443 385.273 673.384 385.273V388.721C669.99 388.393 666.596 388.229 663.202 388.229C658.604 388.229 654.279 388.393 650.228 388.721C646.287 389.05 642.619 389.652 639.225 390.528V280.003C639.225 275.077 638.459 271.464 636.926 269.164C635.503 266.756 632.766 265.552 628.715 265.552V262.103C632.218 262.431 635.612 262.595 638.897 262.595C643.386 262.595 647.655 262.431 651.706 262.103C655.757 261.665 659.48 261.063 662.874 260.296ZM620.996 301.681C625.813 301.681 630.029 302.502 633.642 304.145C637.364 305.677 640.265 308.305 642.346 312.028L640.375 313.834C638.951 311.206 637.036 309.345 634.627 308.25C632.328 307.046 629.864 306.444 627.237 306.444C621.653 306.444 617.219 309.728 613.934 316.297C610.65 322.757 609.062 332.775 609.172 346.351C609.172 355.657 609.774 363.102 610.978 368.686C612.292 374.16 614.099 378.101 616.398 380.51C618.806 382.919 621.543 384.123 624.609 384.123C628.332 384.123 631.671 382.645 634.627 379.689C637.583 376.733 639.17 372.737 639.389 367.7L640.211 373.448C638.568 379.251 635.886 383.685 632.163 386.751C628.55 389.707 623.788 391.185 617.876 391.185C611.416 391.185 605.614 389.597 600.468 386.422C595.432 383.247 591.49 378.375 588.643 371.806C585.797 365.127 584.374 356.533 584.374 346.022C584.374 336.059 585.961 327.848 589.136 321.388C592.311 314.819 596.636 309.893 602.11 306.608C607.694 303.324 613.989 301.681 620.996 301.681Z" fill="white"/>
<path d="M158.621 513.885V471.819H187.949V477.372H165.74V490.109H185.532V495.596H165.74V508.399H187.949V513.885H158.621ZM221.315 513.885V471.819H227.586L249.533 502.781V471.819H256.588V513.885H250.317L228.435 482.989V513.885H221.315ZM291.664 513.885V471.819H320.993V477.372H298.784V490.109H318.576V495.596H298.784V508.399H320.993V513.885H291.664ZM354.359 513.885V471.819H373.693C378.396 471.819 381.815 473.039 383.948 475.477C386.126 477.872 387.214 481.138 387.214 485.275C387.214 488.237 386.474 490.762 384.994 492.852C383.513 494.943 381.379 496.402 378.592 497.229C379.376 497.795 379.986 498.405 380.421 499.058C380.857 499.711 381.292 500.582 381.728 501.671L387.019 513.885H379.703L374.542 502.128C374.063 500.996 373.475 500.19 372.779 499.711C372.126 499.232 370.993 498.993 369.382 498.993H361.478V513.885H354.359ZM361.478 493.244H371.799C374.368 493.244 376.393 492.613 377.874 491.35C379.354 490.087 380.095 488.062 380.095 485.275C380.095 480.006 377.547 477.372 372.452 477.372H361.478V493.244ZM439.647 514.539C432.723 514.539 427.498 512.666 423.97 508.921C420.487 505.176 418.745 500.103 418.745 493.702C418.745 489.086 419.507 485.101 421.031 481.748C422.555 478.351 424.863 475.739 427.955 473.91C431.09 472.081 435.053 471.166 439.843 471.166C442.325 471.166 444.568 471.34 446.571 471.689C448.618 471.994 450.534 472.451 452.319 473.06V479.201C448.748 477.894 444.786 477.241 440.431 477.241C435.075 477.241 431.308 478.656 429.131 481.487C426.997 484.317 425.93 488.389 425.93 493.702C425.93 498.535 427.062 502.215 429.326 504.741C431.591 507.266 435.096 508.529 439.843 508.529C443.588 508.529 446.615 508.094 448.922 507.223V495.465H438.406V490.828H454.997V511.077C453.647 511.948 451.709 512.753 449.184 513.494C446.702 514.19 443.523 514.539 439.647 514.539ZM499.526 513.885V498.274L484.437 471.819H491.818L503.053 492.265L514.288 471.819H521.67L506.581 498.274V513.885H499.526Z" fill="white"/>
</svg>
