<svg width="963" height="90" viewBox="0 0 963 90" fill="none" xmlns="http://www.w3.org/2000/svg">
<path d="M12.6379 66.599C10.8411 66.599 9.16399 66.2795 7.60671 65.6406C6.08936 65.0017 4.87149 64.0434 3.95309 62.7656C3.0347 61.448 2.5755 59.8308 2.5755 57.9141C2.5755 55.1989 3.4939 53.0227 5.33069 51.3855C7.20741 49.7085 10.0824 48.8699 13.9556 48.8699H23.0597V47.6121C23.0597 46.2545 22.8401 45.1764 22.4009 44.3778C22.0016 43.5792 21.2429 43.0002 20.1248 42.6408C19.0467 42.2814 17.4495 42.1017 15.3332 42.1017C11.9791 42.1017 8.84455 42.6009 5.92964 43.5991V38.7476C7.20741 38.2285 8.76469 37.8092 10.6015 37.4898C12.4383 37.1704 14.4148 37.0106 16.5311 37.0106C20.6839 37.0106 23.8384 37.8492 25.9946 39.5262C28.1908 41.2033 29.2888 43.9385 29.2888 47.7319V66H23.7186L23.2993 63.125C22.1413 64.2431 20.7038 65.1016 18.9868 65.7005C17.3098 66.2995 15.1935 66.599 12.6379 66.599ZM14.3749 61.9271C16.3315 61.9271 18.0285 61.6077 19.466 60.9688C20.9434 60.29 22.1413 59.3915 23.0597 58.2735V53.3022H14.0754C12.1588 53.3022 10.7612 53.6815 9.88274 54.4402C9.0442 55.1589 8.62493 56.277 8.62493 57.7943C8.62493 59.2718 9.12406 60.3299 10.1223 60.9688C11.1206 61.6077 12.5381 61.9271 14.3749 61.9271Z" fill="white"/>
<path d="M66.1978 38.4265V39.7293C65.2879 39.7293 64.4814 39.7913 63.7784 39.9154C63.1166 39.9981 62.6617 40.2876 62.4135 40.7839C62.2067 41.2802 62.2894 42.0867 62.6617 43.2034L68.5553 61.6286L67.7488 62.4971L75.0072 38.3644L76.2479 38.9228L66.7562 70.6241C66.0944 70.5827 65.4327 70.562 64.771 70.562C64.1092 70.562 63.4268 70.5827 62.7237 70.6241L52.9217 43.2034C52.3427 41.549 51.7017 40.5564 50.9986 40.2256C50.3368 39.8947 49.7785 39.7293 49.3235 39.7293V38.4265C50.647 38.5505 52.0119 38.6539 53.418 38.7367C54.8656 38.778 56.4372 38.7987 58.1329 38.7987C59.415 38.7987 60.7592 38.7573 62.1654 38.6746C63.6129 38.5919 64.9571 38.5092 66.1978 38.4265ZM98.5815 38.4265V39.6672C97.7957 39.874 97.0513 40.3496 96.3482 41.0941C95.6451 41.8385 94.9834 43.1413 94.363 45.0025L86.112 70.6241C85.4502 70.5827 84.7678 70.562 84.0647 70.562C83.403 70.562 82.7412 70.5827 82.0795 70.6241L73.3322 46.7395L75.0072 38.3644C75.7516 38.4058 76.4961 38.4265 77.2406 38.4265C78.0264 38.3851 78.7915 38.3644 79.5359 38.3644L88.0351 63.4277L87.3527 62.7453L91.5092 49.5933C92.2123 47.3185 92.4812 45.4781 92.3157 44.0719C92.1503 42.6657 91.654 41.6111 90.8268 40.908C89.9997 40.2049 88.883 39.7913 87.4768 39.6672V38.4265C88.1385 38.4678 88.8416 38.5092 89.5861 38.5505C90.3719 38.5505 91.137 38.5712 91.8815 38.6126C92.6673 38.6126 93.329 38.6126 93.8667 38.6126C94.6938 38.6126 95.5417 38.5919 96.4102 38.5505C97.3201 38.5092 98.0439 38.4678 98.5815 38.4265ZM116.415 37.5579C120.055 37.5579 122.908 38.6333 124.976 40.7839C127.044 42.9345 128.078 46.45 128.078 51.3303H107.668L107.544 50.1516H120.261C120.303 48.125 120.179 46.2639 119.889 44.5682C119.6 42.8311 119.145 41.4456 118.524 40.4117C117.904 39.3777 117.077 38.8607 116.043 38.8607C114.595 38.8607 113.354 39.7706 112.32 41.5904C111.328 43.4102 110.728 46.4293 110.521 50.6479L110.708 51.0201C110.666 51.5164 110.625 52.0334 110.583 52.5711C110.583 53.1087 110.583 53.6671 110.583 54.2461C110.583 57.0998 110.976 59.4159 111.762 61.1943C112.589 62.9727 113.623 64.2755 114.864 65.1027C116.105 65.8885 117.366 66.2814 118.648 66.2814C119.517 66.2814 120.406 66.1574 121.316 65.9092C122.267 65.6197 123.218 65.1234 124.17 64.4203C125.121 63.6758 126.01 62.6419 126.837 61.3184L127.954 61.6906C127.458 63.2623 126.672 64.7925 125.597 66.2814C124.521 67.7703 123.156 68.9904 121.502 69.9417C119.848 70.8929 117.863 71.3685 115.546 71.3685C112.734 71.3685 110.253 70.7688 108.102 69.5694C105.951 68.37 104.256 66.5503 103.015 64.1101C101.815 61.67 101.216 58.5681 101.216 54.8044C101.216 50.9581 101.857 47.7528 103.139 45.1886C104.462 42.6244 106.261 40.7219 108.536 39.4811C110.852 38.199 113.479 37.5579 116.415 37.5579ZM145.567 21.9244V64.7305C145.567 66.4675 145.856 67.6463 146.435 68.2666C147.056 68.887 148.09 69.1972 149.537 69.1972V70.5C148.752 70.4586 147.573 70.4173 146.001 70.3759C144.43 70.2932 142.837 70.2518 141.224 70.2518C139.611 70.2518 137.978 70.2932 136.323 70.3759C134.71 70.4173 133.49 70.4586 132.663 70.5V69.1972C134.111 69.1972 135.124 68.887 135.703 68.2666C136.323 67.6463 136.633 66.4675 136.633 64.7305V29.3689C136.633 27.5078 136.344 26.143 135.765 25.2745C135.227 24.3646 134.193 23.9096 132.663 23.9096V22.6068C133.987 22.7309 135.269 22.7929 136.509 22.7929C138.205 22.7929 139.818 22.7309 141.348 22.6068C142.879 22.4414 144.285 22.2139 145.567 21.9244ZM166.437 21.9244V64.7305C166.437 66.4675 166.726 67.6463 167.305 68.2666C167.926 68.887 168.96 69.1972 170.407 69.1972V70.5C169.621 70.4586 168.443 70.4173 166.871 70.3759C165.299 70.2932 163.707 70.2518 162.094 70.2518C160.481 70.2518 158.848 70.2932 157.193 70.3759C155.58 70.4173 154.36 70.4586 153.533 70.5V69.1972C154.981 69.1972 155.994 68.887 156.573 68.2666C157.193 67.6463 157.503 66.4675 157.503 64.7305V29.3689C157.503 27.5078 157.214 26.143 156.635 25.2745C156.097 24.3646 155.063 23.9096 153.533 23.9096V22.6068C154.856 22.7309 156.139 22.7929 157.379 22.7929C159.075 22.7929 160.688 22.7309 162.218 22.6068C163.749 22.4414 165.155 22.2139 166.437 21.9244ZM196.311 21.9865C198.048 21.9865 199.516 22.0898 200.716 22.2966C201.956 22.4621 203.011 22.7102 203.88 23.0411C204.748 23.372 205.534 23.7649 206.237 24.2198C206.94 24.6334 207.54 25.2124 208.036 25.9569C208.532 26.7013 208.781 27.5285 208.781 28.4384C208.781 29.8859 208.284 31.044 207.292 31.9125C206.299 32.781 204.851 33.2153 202.949 33.2153C201.129 33.2153 199.702 32.8017 198.668 31.9745C197.634 31.106 197.117 29.948 197.117 28.5004C197.117 27.4251 197.469 26.4945 198.172 25.7087C198.917 24.8815 199.93 24.2819 201.212 23.9096C200.798 23.6615 200.219 23.4754 199.475 23.3513C198.772 23.1858 198.007 23.1031 197.179 23.1031C195.277 23.1031 193.664 23.5167 192.341 24.3439C191.058 25.1711 190.024 26.2877 189.239 27.6939C188.66 28.7279 188.225 30.0307 187.936 31.6023C187.688 33.1739 187.564 35.4693 187.564 38.4885H194.946C197.097 38.4885 198.937 38.4678 200.467 38.4265C201.998 38.3851 203.363 38.3231 204.562 38.2404C205.803 38.1163 207.023 37.9508 208.222 37.7441V64.7305C208.222 66.4675 208.553 67.6463 209.215 68.2666C209.877 68.887 210.993 69.1972 212.565 69.1972V70.5C211.738 70.4586 210.497 70.4173 208.843 70.3759C207.23 70.2932 205.596 70.2518 203.942 70.2518C202.329 70.2518 200.695 70.2932 199.041 70.3759C197.386 70.4173 196.145 70.4586 195.318 70.5V69.1972C196.766 69.1972 197.779 68.887 198.358 68.2666C198.979 67.6463 199.289 66.4675 199.289 64.7305V45.1886C199.289 43.3275 198.979 41.9626 198.358 41.0941C197.738 40.1842 196.6 39.7293 194.946 39.7293H187.564V64.7305C187.564 66.5089 187.998 67.7083 188.866 68.3287C189.735 68.9077 190.955 69.1972 192.527 69.1972V70.5C191.575 70.4586 190.231 70.4173 188.494 70.3759C186.798 70.2932 185.061 70.2518 183.283 70.2518C181.463 70.2518 179.726 70.2932 178.072 70.3759C176.417 70.4173 175.156 70.4586 174.288 70.5V69.1972C175.859 69.1972 176.976 68.887 177.638 68.2666C178.299 67.6463 178.63 66.4675 178.63 64.7305V39.7293H174.039V38.4885H178.63C178.63 35.8829 179.044 33.5668 179.871 31.5403C180.698 29.4723 181.918 27.6732 183.531 26.143C185.02 24.7782 186.881 23.7442 189.115 23.0411C191.389 22.338 193.788 21.9865 196.311 21.9865ZM232.489 37.5579C236.128 37.5579 238.982 38.6333 241.05 40.7839C243.118 42.9345 244.152 46.45 244.152 51.3303H223.741L223.617 50.1516H236.335C236.376 48.125 236.252 46.2639 235.963 44.5682C235.673 42.8311 235.218 41.4456 234.598 40.4117C233.978 39.3777 233.15 38.8607 232.116 38.8607C230.669 38.8607 229.428 39.7706 228.394 41.5904C227.402 43.4102 226.802 46.4293 226.595 50.6479L226.781 51.0201C226.74 51.5164 226.698 52.0334 226.657 52.5711C226.657 53.1087 226.657 53.6671 226.657 54.2461C226.657 57.0998 227.05 59.4159 227.836 61.1943C228.663 62.9727 229.697 64.2755 230.938 65.1027C232.178 65.8885 233.44 66.2814 234.722 66.2814C235.591 66.2814 236.48 66.1574 237.39 65.9092C238.341 65.6197 239.292 65.1234 240.243 64.4203C241.195 63.6758 242.084 62.6419 242.911 61.3184L244.028 61.6906C243.531 63.2623 242.746 64.7925 241.67 66.2814C240.595 67.7703 239.23 68.9904 237.576 69.9417C235.921 70.8929 233.936 71.3685 231.62 71.3685C228.808 71.3685 226.326 70.7688 224.176 69.5694C222.025 68.37 220.329 66.5503 219.088 64.1101C217.889 61.67 217.289 58.5681 217.289 54.8044C217.289 50.9581 217.93 47.7528 219.213 45.1886C220.536 42.6244 222.335 40.7219 224.61 39.4811C226.926 38.199 229.552 37.5579 232.489 37.5579ZM261.641 21.9244V64.7305C261.641 66.4675 261.93 67.6463 262.509 68.2666C263.129 68.887 264.163 69.1972 265.611 69.1972V70.5C264.825 70.4586 263.646 70.4173 262.075 70.3759C260.503 70.2932 258.911 70.2518 257.298 70.2518C255.685 70.2518 254.051 70.2932 252.397 70.3759C250.784 70.4173 249.564 70.4586 248.737 70.5V69.1972C250.184 69.1972 251.198 68.887 251.777 68.2666C252.397 67.6463 252.707 66.4675 252.707 64.7305V29.3689C252.707 27.5078 252.418 26.143 251.839 25.2745C251.301 24.3646 250.267 23.9096 248.737 23.9096V22.6068C250.06 22.7309 251.342 22.7929 252.583 22.7929C254.279 22.7929 255.892 22.7309 257.422 22.6068C258.952 22.4414 260.358 22.2139 261.641 21.9244ZM299.408 21.9244V63.6758C299.408 65.537 299.698 66.9225 300.277 67.8324C300.856 68.7009 301.89 69.1352 303.378 69.1352V70.438C302.096 70.3139 300.814 70.2518 299.532 70.2518C297.795 70.2518 296.161 70.3139 294.631 70.438C293.142 70.562 291.757 70.7895 290.475 71.1204V29.3689C290.475 27.5078 290.185 26.143 289.606 25.2745C289.068 24.3646 288.034 23.9096 286.504 23.9096V22.6068C287.828 22.7309 289.11 22.7929 290.35 22.7929C292.046 22.7929 293.659 22.7309 295.189 22.6068C296.72 22.4414 298.126 22.2139 299.408 21.9244ZM283.588 37.5579C285.408 37.5579 287 37.8681 288.365 38.4885C289.771 39.0675 290.867 40.0601 291.653 41.4663L290.909 42.1487C290.371 41.1561 289.647 40.453 288.738 40.0394C287.869 39.5845 286.938 39.357 285.946 39.357C283.837 39.357 282.162 40.5978 280.921 43.0793C279.68 45.5195 279.08 49.3038 279.122 54.4322C279.122 57.9477 279.349 60.7601 279.804 62.8694C280.3 64.9373 280.983 66.4262 281.851 67.3361C282.761 68.246 283.795 68.7009 284.953 68.7009C286.359 68.7009 287.621 68.1426 288.738 67.0259C289.854 65.9092 290.454 64.3996 290.537 62.4971L290.847 64.6684C290.226 66.8605 289.213 68.5355 287.807 69.6935C286.442 70.8102 284.643 71.3685 282.41 71.3685C279.97 71.3685 277.778 70.7688 275.834 69.5694C273.931 68.37 272.442 66.5296 271.367 64.0481C270.292 61.5252 269.754 58.2786 269.754 54.3081C269.754 50.5445 270.354 47.4426 271.553 45.0025C272.752 42.521 274.386 40.6598 276.454 39.4191C278.563 38.1783 280.941 37.5579 283.588 37.5579ZM339.054 37.5579C340.667 37.5579 342.135 37.7441 343.458 38.1163C344.823 38.4471 345.94 38.8814 346.808 39.4191C347.884 40.0808 348.711 40.908 349.29 41.9006C349.91 42.8518 350.22 43.9685 350.22 45.2506C350.22 46.6982 349.765 47.8976 348.856 48.8488C347.946 49.7587 346.767 50.2136 345.319 50.2136C343.872 50.2136 342.714 49.8001 341.845 48.9729C340.977 48.1457 340.542 47.029 340.542 45.6228C340.542 44.2994 340.956 43.2034 341.783 42.3348C342.61 41.425 343.562 40.8253 344.637 40.5358C344.306 40.1222 343.81 39.7706 343.148 39.4811C342.486 39.1916 341.742 39.0468 340.915 39.0468C339.633 39.0468 338.495 39.4191 337.503 40.1635C336.551 40.908 335.745 41.9419 335.083 43.2654C334.421 44.5889 333.904 46.1398 333.532 47.9182C333.201 49.6967 333.036 51.6405 333.036 53.7498C333.036 56.9344 333.429 59.4366 334.215 61.2564C335.042 63.0761 336.076 64.3583 337.316 65.1027C338.599 65.8472 339.922 66.2194 341.287 66.2194C342.073 66.2194 342.921 66.0953 343.83 65.8472C344.782 65.599 345.733 65.1027 346.684 64.3583C347.677 63.6138 348.587 62.5592 349.414 61.1943L350.468 61.5666C350.014 63.0968 349.269 64.6271 348.235 66.1574C347.201 67.6876 345.857 68.9491 344.203 69.9417C342.548 70.8929 340.522 71.3685 338.123 71.3685C335.435 71.3685 332.995 70.7895 330.803 69.6315C328.652 68.4321 326.915 66.6123 325.591 64.1721C324.309 61.6906 323.668 58.506 323.668 54.6183C323.668 50.8961 324.33 47.7735 325.653 45.2506C327.018 42.6864 328.859 40.7632 331.175 39.4811C333.491 38.199 336.117 37.5579 339.054 37.5579ZM370.947 37.5579C373.966 37.5579 376.613 38.1163 378.888 39.233C381.162 40.3496 382.941 42.1487 384.223 44.6302C385.505 47.1118 386.146 50.3998 386.146 54.4943C386.146 58.5887 385.505 61.8767 384.223 64.3583C382.941 66.7984 381.162 68.5768 378.888 69.6935C376.613 70.8102 373.966 71.3685 370.947 71.3685C368.01 71.3685 365.384 70.8102 363.068 69.6935C360.793 68.5768 358.994 66.7984 357.671 64.3583C356.389 61.8767 355.748 58.5887 355.748 54.4943C355.748 50.3998 356.389 47.1118 357.671 44.6302C358.994 42.1487 360.793 40.3496 363.068 39.233C365.384 38.1163 368.01 37.5579 370.947 37.5579ZM370.947 38.7987C369.292 38.7987 367.907 40.0394 366.79 42.521C365.674 44.9611 365.115 48.9522 365.115 54.4943C365.115 60.0363 365.674 64.0274 366.79 66.4675C367.907 68.9077 369.292 70.1278 370.947 70.1278C372.642 70.1278 374.028 68.9077 375.103 66.4675C376.22 64.0274 376.778 60.0363 376.778 54.4943C376.778 48.9522 376.22 44.9611 375.103 42.521C374.028 40.0394 372.642 38.7987 370.947 38.7987ZM412.601 37.5579C413.924 37.5579 415 37.8474 415.827 38.4265C416.654 38.9641 417.254 39.6672 417.626 40.5358C418.039 41.4043 418.246 42.3142 418.246 43.2654C418.246 44.7957 417.791 46.0571 416.881 47.0497C416.013 48.001 414.855 48.4766 413.407 48.4766C411.96 48.4766 410.822 48.125 409.995 47.4219C409.209 46.6775 408.816 45.7056 408.816 44.5062C408.816 43.3481 409.065 42.3969 409.561 41.6524C410.099 40.8666 410.76 40.2049 411.546 39.6672C410.967 39.5018 410.388 39.5225 409.809 39.7293C409.023 39.8533 408.279 40.1842 407.576 40.7219C406.873 41.2182 406.273 41.8592 405.777 42.645C405.28 43.3895 404.887 44.2167 404.598 45.1265C404.308 45.9951 404.164 46.8429 404.164 47.6701V64.1101C404.164 66.0953 404.639 67.4395 405.591 68.1426C406.583 68.8457 408.051 69.1972 409.995 69.1972V70.5C409.044 70.4586 407.658 70.4173 405.839 70.3759C404.019 70.2932 402.116 70.2518 400.131 70.2518C398.477 70.2518 396.802 70.2932 395.106 70.3759C393.41 70.4173 392.128 70.4586 391.26 70.5V69.1972C392.707 69.1972 393.721 68.887 394.3 68.2666C394.92 67.6463 395.23 66.4675 395.23 64.7305V45.1886C395.23 43.3275 394.941 41.9626 394.362 41.0941C393.824 40.1842 392.79 39.7293 391.26 39.7293V38.4265C392.583 38.5505 393.865 38.6126 395.106 38.6126C396.843 38.6126 398.456 38.5505 399.945 38.4265C401.475 38.261 402.882 38.0336 404.164 37.7441V43.5136C404.66 42.3969 405.322 41.3836 406.149 40.4737C406.976 39.5638 407.927 38.8607 409.003 38.3644C410.078 37.8268 411.277 37.5579 412.601 37.5579ZM434.115 37.7441V75.5871C434.115 77.5309 434.612 78.8131 435.604 79.4334C436.597 80.0952 437.962 80.426 439.699 80.426V81.7288C438.623 81.6875 437.134 81.6254 435.232 81.5427C433.371 81.5014 431.386 81.4807 429.276 81.4807C427.746 81.4807 426.236 81.5014 424.748 81.5427C423.3 81.6254 422.204 81.6875 421.46 81.7288V80.426C422.824 80.426 423.776 80.1365 424.313 79.5575C424.892 78.9785 425.182 77.8618 425.182 76.2075V45.1886C425.182 43.3275 424.892 41.9626 424.313 41.0941C423.734 40.1842 422.7 39.7293 421.211 39.7293V38.4265C422.535 38.5505 423.817 38.6126 425.058 38.6126C426.753 38.6126 428.366 38.5505 429.897 38.4265C431.427 38.261 432.833 38.0336 434.115 37.7441ZM443.731 37.5579C445.84 37.5579 447.722 38.137 449.377 39.295C451.031 40.4117 452.354 42.1281 453.347 44.4441C454.34 46.7188 454.836 49.5726 454.836 53.0053C454.836 56.0245 454.484 58.6715 453.781 60.9462C453.12 63.2209 452.148 65.1441 450.865 66.7157C449.625 68.246 448.115 69.404 446.337 70.1898C444.6 70.9756 442.635 71.3685 440.443 71.3685C438.83 71.3685 437.362 71.079 436.038 70.5C434.715 69.9623 433.702 69.1765 432.999 68.1426L433.619 67.3361C434.033 68.0805 434.612 68.6595 435.356 69.0731C436.142 69.4867 437.031 69.6935 438.024 69.6935C439.885 69.6935 441.353 69.0731 442.428 67.8324C443.504 66.5503 444.269 64.7718 444.724 62.4971C445.22 60.181 445.468 57.4307 445.468 54.2461C445.468 50.6893 445.241 47.8976 444.786 45.871C444.331 43.8444 443.71 42.3969 442.925 41.5284C442.139 40.6598 441.188 40.2256 440.071 40.2256C438.582 40.2256 437.217 40.8046 435.976 41.9626C434.777 43.1207 434.095 44.775 433.929 46.9256L433.619 44.7543C434.363 42.3969 435.625 40.6185 437.403 39.4191C439.223 38.1783 441.332 37.5579 443.731 37.5579ZM475.905 37.5579C478.924 37.5579 481.571 38.1163 483.845 39.233C486.12 40.3496 487.899 42.1487 489.181 44.6302C490.463 47.1118 491.104 50.3998 491.104 54.4943C491.104 58.5887 490.463 61.8767 489.181 64.3583C487.899 66.7984 486.12 68.5768 483.845 69.6935C481.571 70.8102 478.924 71.3685 475.905 71.3685C472.968 71.3685 470.342 70.8102 468.026 69.6935C465.751 68.5768 463.952 66.7984 462.628 64.3583C461.346 61.8767 460.705 58.5887 460.705 54.4943C460.705 50.3998 461.346 47.1118 462.628 44.6302C463.952 42.1487 465.751 40.3496 468.026 39.233C470.342 38.1163 472.968 37.5579 475.905 37.5579ZM475.905 38.7987C474.25 38.7987 472.865 40.0394 471.748 42.521C470.631 44.9611 470.073 48.9522 470.073 54.4943C470.073 60.0363 470.631 64.0274 471.748 66.4675C472.865 68.9077 474.25 70.1278 475.905 70.1278C477.6 70.1278 478.986 68.9077 480.061 66.4675C481.178 64.0274 481.736 60.0363 481.736 54.4943C481.736 48.9522 481.178 44.9611 480.061 42.521C478.986 40.0394 477.6 38.7987 475.905 38.7987ZM517.559 37.5579C518.882 37.5579 519.957 37.8474 520.785 38.4265C521.612 38.9641 522.211 39.6672 522.584 40.5358C522.997 41.4043 523.204 42.3142 523.204 43.2654C523.204 44.7957 522.749 46.0571 521.839 47.0497C520.971 48.001 519.813 48.4766 518.365 48.4766C516.917 48.4766 515.78 48.125 514.953 47.4219C514.167 46.6775 513.774 45.7056 513.774 44.5062C513.774 43.3481 514.022 42.3969 514.519 41.6524C515.056 40.8666 515.718 40.2049 516.504 39.6672C515.925 39.5018 515.346 39.5225 514.767 39.7293C513.981 39.8533 513.237 40.1842 512.533 40.7219C511.83 41.2182 511.231 41.8592 510.734 42.645C510.238 43.3895 509.845 44.2167 509.556 45.1265C509.266 45.9951 509.121 46.8429 509.121 47.6701V64.1101C509.121 66.0953 509.597 67.4395 510.548 68.1426C511.541 68.8457 513.009 69.1972 514.953 69.1972V70.5C514.002 70.4586 512.616 70.4173 510.796 70.3759C508.977 70.2932 507.074 70.2518 505.089 70.2518C503.435 70.2518 501.76 70.2932 500.064 70.3759C498.368 70.4173 497.086 70.4586 496.218 70.5V69.1972C497.665 69.1972 498.678 68.887 499.257 68.2666C499.878 67.6463 500.188 66.4675 500.188 64.7305V45.1886C500.188 43.3275 499.898 41.9626 499.319 41.0941C498.782 40.1842 497.748 39.7293 496.218 39.7293V38.4265C497.541 38.5505 498.823 38.6126 500.064 38.6126C501.801 38.6126 503.414 38.5505 504.903 38.4265C506.433 38.261 507.839 38.0336 509.121 37.7441V43.5136C509.618 42.3969 510.279 41.3836 511.107 40.4737C511.934 39.5638 512.885 38.8607 513.96 38.3644C515.036 37.8268 516.235 37.5579 517.559 37.5579ZM534.979 70.9343C533.117 70.9343 531.566 70.5827 530.326 69.8796C529.085 69.1765 528.175 68.246 527.596 67.0879C527.017 65.8885 526.728 64.5857 526.728 63.1795C526.728 61.4011 527.12 59.9536 527.906 58.8369C528.733 57.7202 529.788 56.8103 531.07 56.1072C532.352 55.4041 533.696 54.8251 535.103 54.3702C536.55 53.9152 537.915 53.481 539.197 53.0674C540.521 52.6124 541.575 52.0955 542.361 51.5164C543.188 50.8961 543.602 50.1102 543.602 49.159V44.3201C543.602 43.2447 543.416 42.2935 543.043 41.4663C542.713 40.5978 542.175 39.9361 541.43 39.4811C540.727 39.0262 539.797 38.7987 538.639 38.7987C537.812 38.7987 536.984 38.9228 536.157 39.1709C535.33 39.3777 534.648 39.7499 534.11 40.2876C535.268 40.7012 536.157 41.3422 536.778 42.2108C537.439 43.0379 537.77 43.9892 537.77 45.0645C537.77 46.4707 537.274 47.5874 536.281 48.4145C535.33 49.2417 534.193 49.6553 532.869 49.6553C531.38 49.6553 530.243 49.2004 529.457 48.2905C528.713 47.3392 528.341 46.2019 528.341 44.8784C528.341 43.679 528.63 42.6864 529.209 41.9006C529.829 41.1148 530.677 40.3703 531.753 39.6672C532.911 39.0055 534.296 38.4885 535.909 38.1163C537.563 37.7441 539.342 37.5579 541.244 37.5579C543.147 37.5579 544.863 37.7647 546.394 38.1783C547.924 38.5505 549.206 39.2536 550.24 40.2876C551.191 41.2388 551.811 42.4176 552.101 43.8238C552.39 45.1886 552.535 46.9256 552.535 49.0349V65.9092C552.535 66.9432 552.639 67.6669 552.845 68.0805C553.052 68.4528 553.404 68.6389 553.9 68.6389C554.272 68.6389 554.624 68.5355 554.955 68.3287C555.327 68.1219 555.72 67.8737 556.133 67.5842L556.754 68.6389C555.885 69.3833 554.872 69.9623 553.714 70.3759C552.597 70.7482 551.336 70.9343 549.93 70.9343C548.399 70.9343 547.179 70.7275 546.269 70.3139C545.36 69.8589 544.698 69.2592 544.284 68.5148C543.912 67.7703 543.726 66.9018 543.726 65.9092C542.733 67.4808 541.534 68.7216 540.128 69.6315C538.722 70.5 537.005 70.9343 534.979 70.9343ZM539.383 66.9638C540.21 66.9638 540.955 66.7777 541.617 66.4055C542.32 65.9919 542.981 65.3302 543.602 64.4203V51.7026C543.23 52.3229 542.713 52.8813 542.051 53.3776C541.389 53.8739 540.686 54.3909 539.942 54.9285C539.197 55.4248 538.473 55.9832 537.77 56.6035C537.109 57.2239 536.571 57.989 536.157 58.8989C535.744 59.8088 535.537 60.9048 535.537 62.1869C535.537 63.7999 535.888 64.9993 536.592 65.7851C537.295 66.5709 538.225 66.9638 539.383 66.9638ZM572.361 28.2523V38.4265H579.682V39.6672H572.361V64.7305C572.361 65.9712 572.589 66.8605 573.044 67.3981C573.499 67.8944 574.181 68.1426 575.091 68.1426C575.835 68.1426 576.58 67.8737 577.324 67.3361C578.069 66.7571 578.73 65.7851 579.309 64.4203L580.364 64.9786C579.702 66.8398 578.689 68.37 577.324 69.5694C576.001 70.7688 574.181 71.3685 571.865 71.3685C570.5 71.3685 569.301 71.1824 568.267 70.8102C567.233 70.4793 566.364 69.9623 565.661 69.2592C564.751 68.3494 564.152 67.2327 563.862 65.9092C563.572 64.5444 563.428 62.7866 563.428 60.636V39.6672H558.217V38.4265H563.428V30.2375C565.165 30.2375 566.757 30.0927 568.205 29.8032C569.694 29.4723 571.079 28.9554 572.361 28.2523ZM590.883 22.4207C592.62 22.4207 593.985 22.855 594.978 23.7235C596.012 24.5507 596.529 25.7087 596.529 27.1976C596.529 28.6865 596.012 29.8653 594.978 30.7338C593.985 31.561 592.62 31.9745 590.883 31.9745C589.146 31.9745 587.761 31.561 586.727 30.7338C585.734 29.8653 585.238 28.6865 585.238 27.1976C585.238 25.7087 585.734 24.5507 586.727 23.7235C587.761 22.855 589.146 22.4207 590.883 22.4207ZM595.722 37.7441V64.7305C595.722 66.4675 596.012 67.6463 596.591 68.2666C597.211 68.887 598.245 69.1972 599.693 69.1972V70.5C598.948 70.4586 597.79 70.4173 596.219 70.3759C594.647 70.2932 593.055 70.2518 591.442 70.2518C589.829 70.2518 588.195 70.2932 586.541 70.3759C584.886 70.4173 583.646 70.4586 582.818 70.5V69.1972C584.266 69.1972 585.279 68.887 585.858 68.2666C586.479 67.6463 586.789 66.4675 586.789 64.7305V45.1886C586.789 43.3275 586.499 41.9626 585.92 41.0941C585.383 40.1842 584.349 39.7293 582.818 39.7293V38.4265C584.142 38.5505 585.424 38.6126 586.665 38.6126C588.402 38.6126 590.015 38.5505 591.504 38.4265C593.034 38.261 594.44 38.0336 595.722 37.7441ZM619.633 37.5579C622.653 37.5579 625.3 38.1163 627.574 39.233C629.849 40.3496 631.627 42.1487 632.91 44.6302C634.192 47.1118 634.833 50.3998 634.833 54.4943C634.833 58.5887 634.192 61.8767 632.91 64.3583C631.627 66.7984 629.849 68.5768 627.574 69.6935C625.3 70.8102 622.653 71.3685 619.633 71.3685C616.697 71.3685 614.071 70.8102 611.755 69.6935C609.48 68.5768 607.681 66.7984 606.357 64.3583C605.075 61.8767 604.434 58.5887 604.434 54.4943C604.434 50.3998 605.075 47.1118 606.357 44.6302C607.681 42.1487 609.48 40.3496 611.755 39.233C614.071 38.1163 616.697 37.5579 619.633 37.5579ZM619.633 38.7987C617.979 38.7987 616.594 40.0394 615.477 42.521C614.36 44.9611 613.802 48.9522 613.802 54.4943C613.802 60.0363 614.36 64.0274 615.477 66.4675C616.594 68.9077 617.979 70.1278 619.633 70.1278C621.329 70.1278 622.715 68.9077 623.79 66.4675C624.907 64.0274 625.465 60.0363 625.465 54.4943C625.465 48.9522 624.907 44.9611 623.79 42.521C622.715 40.0394 621.329 38.7987 619.633 38.7987ZM663.025 37.5579C664.762 37.5579 666.168 37.7854 667.243 38.2404C668.36 38.6539 669.228 39.233 669.849 39.9774C670.51 40.7632 670.986 41.7765 671.276 43.0173C671.606 44.258 671.772 45.933 671.772 48.0423V64.7305C671.772 66.4675 672.061 67.6463 672.64 68.2666C673.261 68.887 674.295 69.1972 675.742 69.1972V70.5C674.956 70.4586 673.778 70.4173 672.206 70.3759C670.635 70.2932 669.084 70.2518 667.553 70.2518C665.982 70.2518 664.431 70.2932 662.9 70.3759C661.412 70.4173 660.274 70.4586 659.488 70.5V69.1972C660.729 69.1972 661.598 68.887 662.094 68.2666C662.59 67.6463 662.838 66.4675 662.838 64.7305V45.4367C662.838 44.4028 662.735 43.5136 662.528 42.7691C662.321 41.9833 661.949 41.3836 661.412 40.97C660.874 40.5151 660.067 40.2876 658.992 40.2876C657.875 40.2876 656.841 40.5978 655.89 41.2182C654.98 41.8385 654.236 42.7071 653.657 43.8238C653.119 44.8991 652.85 46.1192 652.85 47.484V64.7305C652.85 66.4675 653.098 67.6463 653.595 68.2666C654.132 68.887 655.001 69.1972 656.2 69.1972V70.5C655.456 70.4586 654.36 70.4173 652.912 70.3759C651.506 70.2932 650.038 70.2518 648.508 70.2518C646.936 70.2518 645.323 70.2932 643.669 70.3759C642.014 70.4173 640.774 70.4586 639.946 70.5V69.1972C641.394 69.1972 642.407 68.887 642.986 68.2666C643.607 67.6463 643.917 66.4675 643.917 64.7305V45.1886C643.917 43.3275 643.627 41.9626 643.048 41.0941C642.511 40.1842 641.477 39.7293 639.946 39.7293V38.4265C641.27 38.5505 642.552 38.6126 643.793 38.6126C645.53 38.6126 647.143 38.5505 648.632 38.4265C650.162 38.261 651.568 38.0336 652.85 37.7441V43.3275C653.884 41.2182 655.29 39.7293 657.069 38.8607C658.847 37.9922 660.833 37.5579 663.025 37.5579Z" fill="white"/>
<path d="M711.245 66.599C706.253 66.599 702.48 65.3412 699.924 62.8255C697.369 60.27 696.091 56.5964 696.091 51.8048C696.091 46.8135 697.489 43.1 700.284 40.6643C703.119 38.2285 706.892 37.0106 711.604 37.0106C713.561 37.0106 715.198 37.1504 716.515 37.4299C717.873 37.7094 719.171 38.1486 720.409 38.7476V43.5991C718.332 42.5609 715.817 42.0418 712.862 42.0418C709.588 42.0418 707.072 42.7806 705.315 44.258C703.558 45.6955 702.68 48.2111 702.68 51.8048C702.68 55.1989 703.458 57.6945 705.016 59.2917C706.573 60.849 709.148 61.6276 712.742 61.6276C715.577 61.6276 718.153 61.0886 720.469 60.0105V64.9818C719.151 65.5009 717.733 65.9002 716.216 66.1797C714.739 66.4592 713.081 66.599 711.245 66.599ZM742.248 66.599C737.137 66.599 733.384 65.3212 730.988 62.7656C728.632 60.2101 727.454 56.5565 727.454 51.8048C727.454 47.0531 728.652 43.3995 731.048 40.8439C733.444 38.2884 737.177 37.0106 742.248 37.0106C747.36 37.0106 751.113 38.2884 753.509 40.8439C755.905 43.3995 757.103 47.0531 757.103 51.8048C757.103 56.5565 755.905 60.2101 753.509 62.7656C751.153 65.3212 747.399 66.599 742.248 66.599ZM742.248 61.0886C745.243 61.0886 747.36 60.3698 748.597 58.9323C749.875 57.4549 750.514 55.0791 750.514 51.8048C750.514 48.5305 749.875 46.1746 748.597 44.7371C747.36 43.2997 745.243 42.5809 742.248 42.5809C739.294 42.5809 737.177 43.2997 735.9 44.7371C734.662 46.1746 734.043 48.5305 734.043 51.8048C734.043 55.0791 734.662 57.4549 735.9 58.9323C737.177 60.3698 739.294 61.0886 742.248 61.0886ZM766.449 66V37.6096H772.439L772.738 40.6044C774.136 39.4863 775.673 38.6078 777.35 37.969C779.028 37.3301 780.824 37.0106 782.741 37.0106C784.777 37.0106 786.355 37.35 787.473 38.0289C788.631 38.6677 789.509 39.5662 790.108 40.7242C791.426 39.646 792.943 38.7676 794.66 38.0888C796.377 37.37 798.434 37.0106 800.829 37.0106C804.104 37.0106 806.519 37.8492 808.077 39.5262C809.634 41.2033 810.413 43.7788 810.413 47.2527V66H804.004V47.9116C804.004 45.7154 803.545 44.1781 802.626 43.2997C801.708 42.4212 800.211 41.982 798.134 41.982C796.776 41.982 795.479 42.2215 794.241 42.7007C793.043 43.1799 792.005 43.8986 791.126 44.8569C791.246 45.2962 791.326 45.7554 791.366 46.2345C791.406 46.7137 791.426 47.2328 791.426 47.7918V66H785.376V47.9715C785.376 45.8951 785.017 44.3778 784.298 43.4194C783.58 42.4611 782.222 41.982 780.225 41.982C778.828 41.982 777.49 42.3214 776.212 43.0002C774.975 43.6391 773.857 44.4177 772.858 45.3361V66H766.449ZM820.741 78.9374V37.6096H826.372L826.731 40.4247C828.009 39.2667 829.406 38.4082 830.924 37.8492C832.441 37.2901 834.238 37.0106 836.314 37.0106C840.387 37.0106 843.561 38.1287 845.838 40.3648C848.114 42.5609 849.252 46.2146 849.252 51.3256C849.252 56.4367 848.074 60.27 845.718 62.8255C843.362 65.3412 840.147 66.599 836.075 66.599C832.641 66.599 829.706 65.8003 827.27 64.2031V78.9374H820.741ZM834.397 61.6875C839.908 61.6875 842.663 58.2136 842.663 51.2657C842.663 47.9116 842.044 45.5357 840.806 44.1382C839.568 42.7007 837.492 41.982 834.577 41.982C831.662 41.982 829.227 42.9802 827.27 44.9767V59.1719C828.188 59.9306 829.207 60.5495 830.325 61.0287C831.483 61.4679 832.84 61.6875 834.397 61.6875ZM867.462 66.599C865.665 66.599 863.988 66.2795 862.43 65.6406C860.913 65.0017 859.695 64.0434 858.777 62.7656C857.858 61.448 857.399 59.8308 857.399 57.9141C857.399 55.1989 858.318 53.0227 860.154 51.3855C862.031 49.7085 864.906 48.8699 868.779 48.8699H877.883V47.6121C877.883 46.2545 877.664 45.1764 877.225 44.3778C876.825 43.5792 876.067 43.0002 874.949 42.6408C873.87 42.2814 872.273 42.1017 870.157 42.1017C866.803 42.1017 863.668 42.6009 860.753 43.5991V38.7476C862.031 38.2285 863.588 37.8092 865.425 37.4898C867.262 37.1704 869.239 37.0106 871.355 37.0106C875.508 37.0106 878.662 37.8492 880.818 39.5262C883.014 41.2033 884.113 43.9385 884.113 47.7319V66H878.542L878.123 63.125C876.965 64.2431 875.528 65.1016 873.811 65.7005C872.133 66.2995 870.017 66.599 867.462 66.599ZM869.199 61.9271C871.155 61.9271 872.852 61.6077 874.29 60.9688C875.767 60.29 876.965 59.3915 877.883 58.2735V53.3022H868.899C866.982 53.3022 865.585 53.6815 864.706 54.4402C863.868 55.1589 863.449 56.277 863.449 57.7943C863.449 59.2718 863.948 60.3299 864.946 60.9688C865.944 61.6077 867.362 61.9271 869.199 61.9271ZM894.347 66V37.6096H900.337L900.636 40.6044C901.914 39.6061 903.431 38.7676 905.188 38.0888C906.985 37.37 908.962 37.0106 911.118 37.0106C914.791 37.0106 917.467 37.8691 919.144 39.5861C920.821 41.3031 921.659 43.9785 921.659 47.6121V66H915.191V47.9116C915.191 45.7154 914.732 44.1781 913.813 43.2997C912.935 42.4212 911.258 41.982 908.782 41.982C907.305 41.982 905.847 42.2814 904.41 42.8804C903.012 43.4793 901.834 44.258 900.876 45.2163V66H894.347ZM936.857 76.5416C934.701 76.5416 932.864 76.2621 931.347 75.7031V70.8515C932.025 71.0911 932.644 71.2508 933.203 71.3307C933.802 71.4105 934.401 71.4505 935 71.4505C936.238 71.4505 937.236 71.2508 937.995 70.8515C938.754 70.4522 939.412 69.8133 939.972 68.9349C940.57 68.0963 941.209 66.9983 941.888 65.6406L929.25 37.6096H936.018L945.123 58.6928L954.346 37.6096H961.055L949.495 64.3828C948.497 66.7786 947.419 68.875 946.261 70.6718C945.142 72.5086 943.825 73.9461 942.307 74.9843C940.83 76.0225 939.013 76.5416 936.857 76.5416Z" fill="white"/>
</svg>
