<?xml version="1.0" encoding="utf-8"?>
<!-- Generator: Adobe Illustrator 28.0.0, SVG Export Plug-In . SVG Version: 6.00 Build 0)  -->
<svg version="1.1" id="Layer_1" xmlns="http://www.w3.org/2000/svg" xmlns:xlink="http://www.w3.org/1999/xlink" x="0px" y="0px"
	 viewBox="0 0 677 194.9" style="enable-background:new 0 0 677 194.9;" xml:space="preserve">
<style type="text/css">
	.st0{fill:#FFFFFF;}
</style>
<path class="st0" d="M45.5,47.3v3.4c-2.4,0-4.5,0.2-6.4,0.5c-1.8,0.2-3,1-3.6,2.3C35,54.9,35.2,57,36.2,60l15.6,48.8l-2.1,2.3
	l19.2-63.9l3.3,1.5L47,132.5c-1.8-0.1-3.5-0.2-5.3-0.2c-1.8,0-3.6,0.1-5.4,0.2L10.4,60c-1.5-4.4-3.2-7-5.1-7.9
	c-1.8-0.9-3.2-1.3-4.4-1.3v-3.4c3.5,0.3,7.1,0.6,10.8,0.8c3.8,0.1,8,0.2,12.5,0.2c3.4,0,7-0.1,10.7-0.3
	C38.7,47.7,42.2,47.5,45.5,47.3z M131.2,47.3v3.3c-2.1,0.5-4.1,1.8-5.9,3.8c-1.9,2-3.6,5.4-5.3,10.3l-21.8,67.8
	c-1.8-0.1-3.6-0.2-5.4-0.2c-1.8,0-3.5,0.1-5.3,0.2L64.4,69.3l4.4-22.2c2,0.1,3.9,0.2,5.9,0.2c2.1-0.1,4.1-0.2,6.1-0.2l22.5,66.3
	l-1.8-1.8l11-34.8c1.9-6,2.6-10.9,2.1-14.6c-0.4-3.7-1.8-6.5-3.9-8.4c-2.2-1.9-5.1-3-8.9-3.3v-3.3c1.8,0.1,3.6,0.2,5.6,0.3
	c2.1,0,4.1,0.1,6.1,0.2c2.1,0,3.8,0,5.3,0c2.2,0,4.4-0.1,6.7-0.2C127.9,47.5,129.8,47.4,131.2,47.3z M178.5,45
	c9.6,0,17.2,2.8,22.7,8.5c5.5,5.7,8.2,15,8.2,27.9h-54l-0.3-3.1h33.7c0.1-5.4-0.2-10.3-1-14.8c-0.8-4.6-2-8.3-3.6-11
	c-1.6-2.7-3.8-4.1-6.6-4.1c-3.8,0-7.1,2.4-9.9,7.2c-2.6,4.8-4.2,12.8-4.8,24l0.5,1c-0.1,1.3-0.2,2.7-0.3,4.1c0,1.4,0,2.9,0,4.4
	c0,7.6,1,13.7,3.1,18.4c2.2,4.7,4.9,8.2,8.2,10.3c3.3,2.1,6.6,3.1,10,3.1c2.3,0,4.7-0.3,7.1-1c2.5-0.8,5-2.1,7.6-3.9
	c2.5-2,4.9-4.7,7.1-8.2l3,1c-1.3,4.2-3.4,8.2-6.2,12.2c-2.8,3.9-6.5,7.2-10.8,9.7c-4.4,2.5-9.6,3.8-15.8,3.8c-7.4,0-14-1.6-19.7-4.8
	c-5.7-3.2-10.2-8-13.5-14.5c-3.2-6.5-4.8-14.7-4.8-24.6c0-10.2,1.7-18.7,5.1-25.5c3.5-6.8,8.3-11.8,14.3-15.1
	C163.7,46.7,170.7,45,178.5,45z M255.6,3.6v113.3c0,4.6,0.8,7.7,2.3,9.4c1.6,1.6,4.4,2.5,8.2,2.5v3.4c-2.1-0.1-5.2-0.2-9.4-0.3
	c-4.2-0.2-8.4-0.3-12.6-0.3c-4.3,0-8.6,0.1-13,0.3c-4.3,0.1-7.5,0.2-9.7,0.3v-3.4c3.8,0,6.5-0.8,8-2.5c1.6-1.6,2.5-4.8,2.5-9.4V23.3
	c0-4.9-0.8-8.5-2.3-10.8c-1.4-2.4-4.2-3.6-8.2-3.6V5.4c3.5,0.3,6.9,0.5,10.2,0.5c4.5,0,8.8-0.2,12.8-0.5
	C248.5,5,252.2,4.4,255.6,3.6z M310.9,3.6v113.3c0,4.6,0.8,7.7,2.3,9.4c1.6,1.6,4.4,2.5,8.2,2.5v3.4c-2.1-0.1-5.2-0.2-9.4-0.3
	c-4.2-0.2-8.4-0.3-12.6-0.3c-4.3,0-8.6,0.1-13,0.3c-4.3,0.1-7.5,0.2-9.7,0.3v-3.4c3.8,0,6.5-0.8,8-2.5c1.6-1.6,2.5-4.8,2.5-9.4V23.3
	c0-4.9-0.8-8.5-2.3-10.8c-1.4-2.4-4.2-3.6-8.2-3.6V5.4c3.5,0.3,6.9,0.5,10.2,0.5c4.5,0,8.8-0.2,12.8-0.5
	C303.8,5,307.5,4.4,310.9,3.6z M390,3.8c4.6,0,8.5,0.3,11.7,0.8c3.3,0.4,6.1,1.1,8.4,2c2.3,0.9,4.4,1.9,6.2,3.1
	c1.9,1.1,3.4,2.6,4.8,4.6c1.3,2,2,4.2,2,6.6c0,3.8-1.3,6.9-3.9,9.2c-2.6,2.3-6.5,3.4-11.5,3.4c-4.8,0-8.6-1.1-11.3-3.3
	c-2.7-2.3-4.1-5.4-4.1-9.2c0-2.8,0.9-5.3,2.8-7.4c2-2.2,4.7-3.8,8-4.8c-1.1-0.7-2.6-1.1-4.6-1.5c-1.9-0.4-3.9-0.7-6.1-0.7
	c-5,0-9.3,1.1-12.8,3.3c-3.4,2.2-6.1,5.1-8.2,8.9c-1.5,2.7-2.7,6.2-3.4,10.3c-0.7,4.2-1,10.2-1,18.2h19.5c5.7,0,10.6-0.1,14.6-0.2
	c4.1-0.1,7.7-0.3,10.8-0.5c3.3-0.3,6.5-0.8,9.7-1.3v71.4c0,4.6,0.9,7.7,2.6,9.4c1.8,1.6,4.7,2.5,8.9,2.5v3.4
	c-2.2-0.1-5.5-0.2-9.9-0.3c-4.3-0.2-8.6-0.3-13-0.3c-4.3,0-8.6,0.1-13,0.3c-4.4,0.1-7.7,0.2-9.9,0.3v-3.4c3.8,0,6.5-0.8,8-2.5
	c1.6-1.6,2.5-4.8,2.5-9.4V65.2c0-4.9-0.8-8.5-2.5-10.8c-1.6-2.4-4.7-3.6-9-3.6h-19.5v66.2c0,4.7,1.1,7.9,3.4,9.5
	c2.3,1.5,5.5,2.3,9.7,2.3v3.4c-2.5-0.1-6.1-0.2-10.7-0.3c-4.5-0.2-9.1-0.3-13.8-0.3c-4.8,0-9.4,0.1-13.8,0.3
	c-4.4,0.1-7.7,0.2-10,0.3v-3.4c4.2,0,7.1-0.8,8.9-2.5c1.8-1.6,2.6-4.8,2.6-9.4V50.8H331v-3.3h12.2c0-6.9,1.1-13,3.3-18.4
	c2.2-5.5,5.4-10.2,9.7-14.3c3.9-3.6,8.9-6.4,14.8-8.2C376.9,4.7,383.3,3.8,390,3.8z M485.7,45c9.6,0,17.2,2.8,22.7,8.5
	c5.5,5.7,8.2,15,8.2,27.9h-54l-0.3-3.1h33.7c0.1-5.4-0.2-10.3-1-14.8c-0.8-4.6-2-8.3-3.6-11c-1.6-2.7-3.8-4.1-6.6-4.1
	c-3.8,0-7.1,2.4-9.9,7.2c-2.6,4.8-4.2,12.8-4.8,24l0.5,1c-0.1,1.3-0.2,2.7-0.3,4.1c0,1.4,0,2.9,0,4.4c0,7.6,1,13.7,3.1,18.4
	c2.2,4.7,4.9,8.2,8.2,10.3c3.3,2.1,6.6,3.1,10,3.1c2.3,0,4.7-0.3,7.1-1c2.5-0.8,5-2.1,7.6-3.9c2.5-2,4.9-4.7,7.1-8.2l3,1
	c-1.3,4.2-3.4,8.2-6.2,12.2c-2.8,3.9-6.5,7.2-10.8,9.7c-4.4,2.5-9.6,3.8-15.8,3.8c-7.4,0-14-1.6-19.7-4.8c-5.7-3.2-10.2-8-13.5-14.5
	c-3.2-6.5-4.8-14.7-4.8-24.6c0-10.2,1.7-18.7,5.1-25.5c3.5-6.8,8.3-11.8,14.3-15.1C471,46.7,478,45,485.7,45z M562.9,3.6v113.3
	c0,4.6,0.8,7.7,2.3,9.4c1.6,1.6,4.4,2.5,8.2,2.5v3.4c-2.1-0.1-5.2-0.2-9.4-0.3c-4.2-0.2-8.4-0.3-12.6-0.3c-4.3,0-8.6,0.1-13,0.3
	c-4.3,0.1-7.5,0.2-9.7,0.3v-3.4c3.8,0,6.5-0.8,8-2.5c1.6-1.6,2.5-4.8,2.5-9.4V23.3c0-4.9-0.8-8.5-2.3-10.8c-1.4-2.4-4.2-3.6-8.2-3.6
	V5.4c3.5,0.3,6.9,0.5,10.2,0.5c4.5,0,8.8-0.2,12.8-0.5C555.8,5,559.5,4.4,562.9,3.6z M662.9,3.6v110.5c0,4.9,0.8,8.6,2.3,11
	c1.5,2.3,4.3,3.4,8.2,3.4v3.4c-3.4-0.3-6.8-0.5-10.2-0.5c-4.6,0-8.9,0.2-13,0.5c-3.9,0.3-7.6,0.9-11,1.8V23.3
	c0-4.9-0.8-8.5-2.3-10.8c-1.4-2.4-4.2-3.6-8.2-3.6V5.4c3.5,0.3,6.9,0.5,10.2,0.5c4.5,0,8.8-0.2,12.8-0.5
	C655.8,5,659.5,4.4,662.9,3.6z M621,45c4.8,0,9,0.8,12.6,2.5c3.7,1.5,6.6,4.2,8.7,7.9l-2,1.8c-1.4-2.6-3.3-4.5-5.7-5.6
	c-2.3-1.2-4.8-1.8-7.4-1.8c-5.6,0-10,3.3-13.3,9.9c-3.3,6.5-4.9,16.5-4.8,30.1c0,9.3,0.6,16.8,1.8,22.3c1.3,5.5,3.1,9.4,5.4,11.8
	c2.4,2.4,5.1,3.6,8.2,3.6c3.7,0,7.1-1.5,10-4.4c3-3,4.5-7,4.8-12l0.8,5.7c-1.6,5.8-4.3,10.2-8,13.3c-3.6,3-8.4,4.4-14.3,4.4
	c-6.5,0-12.3-1.6-17.4-4.8c-5-3.2-9-8-11.8-14.6c-2.8-6.7-4.3-15.3-4.3-25.8c0-10,1.6-18.2,4.8-24.6c3.2-6.6,7.5-11.5,13-14.8
	C607.7,46.7,614,45,621,45z"/>
<path class="st0" d="M157,194.2v-42.1h29.3v5.6h-22.2v12.7h19.8v5.5h-19.8v12.8h22.2v5.5H157z M219.7,194.2v-42.1h6.3l21.9,31v-31
	h7.1v42.1h-6.3l-21.9-30.9v30.9H219.7z M290,194.2v-42.1h29.3v5.6h-22.2v12.7h19.8v5.5h-19.8v12.8h22.2v5.5H290z M352.7,194.2v-42.1
	H372c4.7,0,8.1,1.2,10.3,3.7c2.2,2.4,3.3,5.7,3.3,9.8c0,3-0.7,5.5-2.2,7.6c-1.5,2.1-3.6,3.6-6.4,4.4c0.8,0.6,1.4,1.2,1.8,1.8
	c0.4,0.7,0.9,1.5,1.3,2.6l5.3,12.2h-7.3l-5.2-11.8c-0.5-1.1-1.1-1.9-1.8-2.4c-0.7-0.5-1.8-0.7-3.4-0.7h-7.9v14.9H352.7z
	 M359.8,173.6h10.3c2.6,0,4.6-0.6,6.1-1.9c1.5-1.3,2.2-3.3,2.2-6.1c0-5.3-2.5-7.9-7.6-7.9h-11V173.6z M438,194.9
	c-6.9,0-12.1-1.9-15.7-5.6c-3.5-3.7-5.2-8.8-5.2-15.2c0-4.6,0.8-8.6,2.3-12c1.5-3.4,3.8-6,6.9-7.8c3.1-1.8,7.1-2.7,11.9-2.7
	c2.5,0,4.7,0.2,6.7,0.5c2,0.3,4,0.8,5.7,1.4v6.1c-3.6-1.3-7.5-2-11.9-2c-5.4,0-9.1,1.4-11.3,4.2c-2.1,2.8-3.2,6.9-3.2,12.2
	c0,4.8,1.1,8.5,3.4,11c2.3,2.5,5.8,3.8,10.5,3.8c3.7,0,6.8-0.4,9.1-1.3v-11.8h-10.5v-4.6h16.6v20.2c-1.3,0.9-3.3,1.7-5.8,2.4
	C445.1,194.6,441.9,194.9,438,194.9z M497.9,194.2v-15.6l-15.1-26.5h7.4l11.2,20.4l11.2-20.4h7.4l-15.1,26.5v15.6H497.9z"/>
</svg>
