<?xml version="1.0" encoding="utf-8"?>
<!-- Generator: Adobe Illustrator 28.0.0, SVG Export Plug-In . SVG Version: 6.00 Build 0)  -->
<svg version="1.1" id="Layer_1" xmlns="http://www.w3.org/2000/svg" xmlns:xlink="http://www.w3.org/1999/xlink" x="0px" y="0px"
	 viewBox="0 0 66 64.7" style="enable-background:new 0 0 66 64.7;" xml:space="preserve">
<style type="text/css">
	.st0{fill:none;}
	.st1{fill:#E9DC42;stroke:#E9DC42;stroke-miterlimit:10;}
	.st2{fill:#231F20;}
	.st3{fill:#E9DC42;}
	.st4{fill:#E9DC42;stroke:#E9DC42;stroke-width:0.5;stroke-miterlimit:10;}
</style>
<rect x="23.4" y="25" class="st0" width="21.5" height="32.8"/>
<g>
	<path class="st1" d="M8.8,61.3c-0.4,0.8-0.4,1.6-0.2,2.4H2c-0.8,0-1.3-0.8-0.9-1.5c7.3-15,6.6-29.6,6.7-30.2c0-0.5,0.5-1,1-1h9.3
		C17.1,39.5,14.6,50.4,8.8,61.3z"/>
	<path class="st1" d="M64,63.7h-5.5c0.3-0.8,0.2-1.7-0.2-2.4C52.5,50.3,50,39.5,49,31h8.2c0.6,0,1,0.4,1,1
		c0.1,0.6-0.7,15.1,6.7,30.2C65.2,62.8,64.8,63.7,64,63.7z"/>
</g>
<path class="st2" d="M56.5,62.2c-9-17.1-10.3-33.9-10.2-42.4c0-0.4,0-0.6,0-0.7c-0.1-0.5-0.5-0.9-1-0.9H21.8c-0.5,0-0.9,0.4-1,0.9
	c0,0.1,0,0.3,0,0.7c0,8.5-1.3,25.3-10.2,42.4c-0.2,0.3-0.1,0.7,0,1s0.5,0.5,0.9,0.5h44.2c0.4,0,0.7-0.2,0.9-0.5
	C56.7,62.9,56.7,62.5,56.5,62.2z M42.6,43.4L31.7,54.5c-0.3,0.3-0.9,0.4-1.3,0.1c-0.4-0.3-0.6-0.8-0.4-1.2l3.5-7.9l-5.2-2.2
	c-0.3-0.1-0.5-0.3-0.6-0.6s-0.1-0.6,0.1-0.8l7.5-13.4c0.2-0.4,0.7-0.6,1.2-0.5c0.5,0.2,0.7,0.6,0.7,1.1l-1.5,9.5l6.5,3.2
	c0.3,0.1,0.5,0.4,0.5,0.7C42.9,42.8,42.8,43.1,42.6,43.4z"/>
<path class="st3" d="M26.9,10.8c-0.3,0.5-0.1,1.1,0.4,1.4c0.5,0.3,1.1,0.1,1.4-0.4c2.3-4-1.2-7.1,0-9.8c0.2-0.5,0-1.1-0.5-1.3
	s-1.1,0-1.3,0.5C25.1,4.8,28.6,7.6,26.9,10.8z"/>
<path class="st3" d="M32.5,13.5c-0.3,0.5-0.1,1.1,0.4,1.4c0.5,0.3,1.1,0.1,1.4-0.4c2.3-4-1.2-7.1,0-9.8c0.2-0.5,0-1.1-0.5-1.3
	s-1.1,0-1.3,0.5C30.8,7.5,34.3,10.5,32.5,13.5z"/>
<path class="st3" d="M38.2,15.8c-0.3,0.5-0.1,1.1,0.4,1.4c0.5,0.3,1.1,0.1,1.4-0.4c2.3-4-1.2-7.1,0-9.8c0.2-0.5,0-1.1-0.5-1.3
	c-0.5-0.2-1.1,0-1.3,0.5C36.5,9.7,40,12.7,38.2,15.8z"/>
<path class="st4" d="M42.5,43.4L31.6,54.5c-0.3,0.3-0.9,0.4-1.3,0.1c-0.4-0.3-0.6-0.8-0.4-1.2l3.5-7.9l-5.2-2.2
	c-0.3-0.1-0.5-0.3-0.6-0.6s-0.1-0.6,0.1-0.8l7.5-13.4c0.2-0.4,0.7-0.6,1.2-0.5c0.5,0.2,0.7,0.6,0.7,1.1l-1.5,9.5l6.5,3.2
	c0.3,0.1,0.5,0.4,0.5,0.7C42.8,42.8,42.7,43.1,42.5,43.4z"/>
</svg>
